<?xml version="1.0" standalone="yes"?>
<svg xmlns="http://www.w3.org/2000/svg" viewBox="0 0 48 48" width="100%" height="100%">
<path style="fill:#132974; stroke:none;" d="M0 0L0 900L1600 900L1600 0L0 0z"/>
<path style="fill:#2cb2b2; stroke:none;" d="M482 115L482 398C500.637 384.871 516.862 362.918 532.17 346C564.215 310.585 598.352 276.952 630.911 242C646.469 225.297 661.059 202.845 679 189C678.317 184.06 677.239 180.879 672 180C670.904 174.47 661.093 168.145 656.478 164.777C650.014 160.06 641.682 151.047 636.383 144.964C632.436 140.431 630.601 134.962 624 134L618 124L610 120L610 119L620 118L620 117L612 118L624 116C612.782 111.293 593.206 115 581 115L482 115z"/>
<path style="fill:#cd6f7d; stroke:none;" d="M612 118L620 117L620 118L610 119L610 120L618 124L624 134L637.018 146.325L655.745 164.777L672 180C676.903 181.434 677.966 184.203 679 189L662.714 206L631.83 240L528.714 349L493.715 386L482.318 400L482 426L482 479L482 652C501.529 638.244 518.099 616.901 535 600C567.178 567.822 599.829 536.171 632 504C643.509 492.491 655.473 481.49 667 470.001C672.576 464.443 676.851 458.145 685 462L681 458L689 450C688.998 455.218 692.611 455.468 695.272 459.254C700.474 466.657 710.332 479.707 720 480C720.192 486.324 723.185 486.247 726.74 490.529C732.856 497.894 741.449 511.68 752 512C752.21 518.926 756.57 518.845 759.746 524.019C764.092 531.096 768.657 532.378 774.14 537.86C781.267 544.988 788.575 559.653 800 560C800.217 567.153 808.879 575.52 816 576C816.782 587.612 830.911 594.632 838.14 601.86C843.622 607.343 844.903 611.908 851.981 616.254C857.155 619.43 857.074 623.79 864 624C864.217 631.149 872.851 639.783 880 640L880 644L894 646L894 647L884 647L884 648L895 648L895 649L890 649L890 650C931.875 655.32 975.756 652 1018 652C1000.38 626.981 972.66 605.66 951 584C907.508 540.508 864.505 496.505 821 453C803.954 435.954 786.961 418.858 770 401.731C766.151 397.844 753.757 388.847 754.016 382.999C754.288 376.882 766.874 368.126 771 364L822 313L954 181C975.026 159.974 1001.89 139.287 1019 115L714 115L639 115C632.616 115 616.339 113.034 612 118z"/>
<path style="fill:#f68713; stroke:none;" d="M592 290C585.956 290.261 585.063 294.702 585 300L586 300L587 298L588 301L584 302L583 301L584 296C581.414 297.438 580.473 298.327 582 301L582 302L580 304L593 304C601.296 314.333 609.768 330.104 624 332C624.106 340.912 635.807 352.979 645 352L652.299 366.722L660.482 370.469L673.455 389.237L685.011 396.143L688.974 404.525L704 412L700 416L701 418L697 419L699 423L700 423L699 420L706 419C707.067 423.956 709.763 420.251 710 417C717.813 417.302 725.699 406.035 731.004 400.965C749.219 383.557 767.182 365.856 785 348.039C838.831 294.208 893.159 240.841 947 187L994 140C1001.17 132.826 1011.68 125.26 1016 116L826 116L773 116C766.674 116 756.764 114.146 751 117.028C739.657 122.699 728.012 139.392 719.665 148.83C701.797 169.034 682.828 188.691 663.985 208C645.533 226.91 628.307 246.981 609.961 266.004C604.247 271.928 592.361 281.395 592 290z"/>
<path style="fill:#cd6f7d; stroke:none;" d="M616 125L617 126L616 125M588 293L587 295L588 293M590 293L592 295L592 293L590 293M589 295L590 296L589 295M582 298L583 299L582 298M590 298L590 300L592 300L590 298M591 302L590 304L592 304L591 302z"/>
<path style="fill:#f68713; stroke:none;" d="M576 303L577 304L576 303M574 306L573 308L575 308L574 306z"/>
<path style="fill:#2cb2b2; stroke:none;" d="M778 399L803.579 427.08L853 477L1022 647L1023 647C1062.04 606.185 1072.95 541.177 1058 488C1073.6 483.572 1089.37 479.768 1105 475.424C1109.68 474.122 1118.88 472.993 1117.51 466.019C1116.02 458.432 1106.83 461.841 1102 463.116C1085.97 467.343 1069.95 471.474 1054 476C1037.52 427.574 996.166 388.299 949 370C955.383 353.326 960.738 333.573 963.97 316C965.044 310.161 959.361 302.428 953.728 308.515C950.941 311.525 950.658 317.192 949.573 321C946.73 330.971 943.89 340.937 941.373 351C940.387 354.946 939.667 363.792 934.867 364.958C930.231 366.083 923.592 362.684 919 361.805C908.923 359.876 897.347 358.74 887.086 359.087C845.004 360.511 812.235 375.64 778 399z"/>
<path style="fill:#132974; stroke:none;" d="M889 407.754C870.379 408.663 871.601 436.297 890 435.906C908.117 435.52 907.385 406.857 889 407.754z"/>
<path style="fill:#cd6f7d; stroke:none;" d="M716 408L717 409L716 408M713 412L712 414L713 412M707 414L710 417L707 414z"/>
<path style="fill:#f68713; stroke:none;" d="M689 420L690 421L689 420M702 421L703 422L702 421M697 428L698 429L697 428M695.333 432.667L695.667 433.333L695.333 432.667z"/>
<path style="fill:#2cb2b2; stroke:none;" d="M697 445L698 446L697 445M691 447L691 448L695 448L691 447M688 450L681 458L685 462C677.784 457.317 673.279 462.848 667.999 468.015C656.372 479.394 644.501 490.499 633 502C599.156 535.844 564.849 569.151 531 603C515.368 618.632 495.725 633.936 483 652L900 652L900 651L890 650L890 649L895 649L895 648L884 648L884 647L894 647L894 646L880 644L880 640C873.413 639.548 864.452 630.587 864 624C857.551 623.558 857.487 619.292 852.746 616.254C845.673 611.721 843.9 606.474 838.14 601.26C830.741 594.563 817.473 586.981 816 576C809.432 575.119 800.459 566.687 800 560L788.746 552.254L774.74 537.86L765.054 531.603L759.272 522.529L752 512C745.814 511.576 745.792 507.967 741.471 504.728C734.217 499.292 720.669 489.75 720 480C713.814 479.576 713.792 475.966 709.471 472.728C701.063 466.427 693.013 459.51 688 450M679 457L680 458L679 457M704 462L704 464L706 464L706 462L704 462M720 478L720 480L722 480L722 478L720 478M736 494L736 496L738 496L738 494L736 494M752 510L752 512L754 512L754 510L752 510z"/>
<path style="fill:#132974; stroke:none;" d="M999 521.537C981.486 525.58 987.267 552.798 1005 549.057C1022.89 545.283 1017.1 517.359 999 521.537z"/>
<path style="fill:#2cb2b2; stroke:none;" d="M800 558L800 560L802 560L802 558L800 558M816 574L816 576L818 576L818 574L816 574M832 590L832 592L834 592L834 590L832 590M880 638L880 640L882 640L882 638L880 638z"/>
<path style="fill:#f0f2f7; stroke:none;" d="M348 726L331 769L340 769C342.23 761.203 349.673 753.266 358.606 759.028C365.813 763.676 362.278 768.992 373 769C369.233 757.937 360.796 726.152 348 726z"/>
<path style="fill:#cd6f7d; stroke:none;" d="M452 726L452 739L453 739L452 726z"/>
<path style="fill:#f0f2f7; stroke:none;" d="M453 726L453 739C449.386 737.527 446.008 735.897 442 736.109C423.885 737.064 421.252 765.558 439 769.606C444.626 770.889 449.178 768.523 454 766C454.796 769.716 457.637 769 461 769L461 726L453 726M548 726C548.194 731.9 550.348 732.933 556 733L556 726L548 726z"/>
<path style="fill:#2cb2b2; stroke:none;" d="M556 726L557 727L556 726z"/>
<path style="fill:#f0f2f7; stroke:none;" d="M595 726L596 739C592.438 737.628 588.905 736.004 585 736.133C557.739 737.034 570.955 783.606 596 766C596.796 769.716 599.637 769 603 769L603 726L595 726z"/>
<path style="fill:#cd6f7d; stroke:none;" d="M603 726L603 769L604 769C604 756.781 607.711 737.225 603 726z"/>
<path style="fill:#f0f2f7; stroke:none;" d="M644 726L644 769L652 769L652 751L653 751C657.91 761.333 663.22 768.999 675 769L660.585 747L675 726C663.156 726.001 657.909 733.623 653 744L652 744L652 726L644 726M735 726L735 737L731 737C731.12 740.692 731.313 742.777 735 744L735 769L743 769L743 744L747 744L747 737L743 737L743 726L735 726z"/>
<path style="fill:#cd6f7d; stroke:none;" d="M759 726L759 769L760 769C760 756.781 763.711 737.225 759 726z"/>
<path style="fill:#f0f2f7; stroke:none;" d="M760 726L760 769L767 769L767 726L760 726z"/>
<path style="fill:#cd6f7d; stroke:none;" d="M767 726L767 769L768 769C768 756.781 771.711 737.225 767 726M781 726L781 732L782 732L781 726z"/>
<path style="fill:#f0f2f7; stroke:none;" d="M782 726L782 733L790 733L790 726L782 726z"/>
<path style="fill:#cd6f7d; stroke:none;" d="M873 726L873 769L874 769C874 756.781 877.711 737.225 873 726z"/>
<path style="fill:#f0f2f7; stroke:none;" d="M874 726L874 769L882 769C881.097 765.209 879.68 758.838 882.028 755.318C884.6 751.461 891.958 752.968 895.696 750.121C906.68 741.755 899.327 726.645 887 726.04C882.683 725.828 878.322 726 874 726z"/>
<path style="fill:#cd6f7d; stroke:none;" d="M891.667 726.333L892.333 726.667L891.667 726.333M1172 726L1172 733L1173 733L1172 726z"/>
<path style="fill:#f0f2f7; stroke:none;" d="M1173 726L1173 733L1180 733L1180 726L1173 726z"/>
<path style="fill:#cd6f7d; stroke:none;" d="M1180 726L1180 733L1181 733L1180 726M556 727L556 732L557 732L556 727M894 727L895 728L894 727M347 728L348 729L347 728M663 728L664 729L663 728M356 729L357 730L356 729M662 729L663 730L662 729M672 729L673 730L672 729M897 729L898 730L897 729M346 730L347 731L346 730M671 730L672 731L671 730M357 731L358 732L357 731M548 732L549 733L548 732z"/>
<path style="fill:#2cb2b2; stroke:none;" d="M556 732L557 733L556 732z"/>
<path style="fill:#cd6f7d; stroke:none;" d="M660 732L661 733L660 732M899 732L900 733L899 732M345 733L346 734L345 733M669 733L670 734L669 733M358 734L359 735L358 734M668 734L669 735L668 734M881 734L881 745L882 745L881 734z"/>
<path style="fill:#132974; stroke:none;" d="M882 734L882 745C894.11 744.437 894.432 734.113 882 734z"/>
<path style="fill:#cd6f7d; stroke:none;" d="M889 734L890 735L889 734M344 735L345 736L344 735M667 735L668 736L667 735M891 735L892 736L891 735M359 736L360 737L359 736M384 769L385 769L385 737L391 737C380.144 732.605 384 762.529 384 769M394 738L397 737L394 738z"/>
<path style="fill:#f0f2f7; stroke:none;" d="M393 739L392 739L385 737L385 769L392 769C392 764.131 390.189 739.581 400.892 744.288C407.831 747.339 405 762.911 405 769L413 769C413 761.148 414.886 750.408 411.852 743.04C408.708 735.405 398.967 734.255 393 739z"/>
<path style="fill:#cd6f7d; stroke:none;" d="M405 736L406 737L405 736M437.667 736.333L438.333 736.667L437.667 736.333M447 736L448 737L447 736M475 736L475 737L482 739C482.59 735.42 477.655 736.011 475 736M485 736L486 737L485 736z"/>
<path style="fill:#f0f2f7; stroke:none;" d="M483 739L475 737L475 769L483 769L483.603 749.015L490 736L483 739z"/>
<path style="fill:#cd6f7d; stroke:none;" d="M512.667 736.333L513.333 736.667L512.667 736.333z"/>
<path style="fill:#f0f2f7; stroke:none;" d="M514 736.532C492.653 741.612 500.636 774.256 522 769.61C543.532 764.927 535.614 731.39 514 736.532z"/>
<path style="fill:#cd6f7d; stroke:none;" d="M523 736L524 737L523 736M549 736L549 737L556 737L556 769C559.634 760.339 560.432 736.135 549 736M580.667 736.333L581.333 736.667L580.667 736.333M589.667 736.333L590.333 736.667L589.667 736.333M657 736L658 737L657 736M697.667 736.333L698.333 736.667L697.667 736.333z"/>
<path style="fill:#f0f2f7; stroke:none;" d="M699 736.533C677.485 741.755 686.564 774.669 708 769.467C729.49 764.252 720.356 731.35 699 736.533z"/>
<path style="fill:#cd6f7d; stroke:none;" d="M708.667 736.333L709.333 736.667L708.667 736.333M732 736L732 737L735 737L732 736M743 736L743 737L747 737L743 736M781 769L782 769L782 737L789 737C776.674 731.884 781 761.918 781 769M805 736L805 737L811 737L805 736M815.667 736.333L816.333 736.667L815.667 736.333z"/>
<path style="fill:#f0f2f7; stroke:none;" d="M813 739L804 737L804 769L812 769C812 763.59 809.381 741.557 819.957 744.086C828.006 746.011 825 762.978 825 769L833 769C833 761.471 834.837 751.102 832.107 744.001C829.128 736.254 819.167 733.636 813 739z"/>
<path style="fill:#cd6f7d; stroke:none;" d="M824.667 736.333L825.333 736.667L824.667 736.333M892.333 736.667L892.667 737.333L892.333 736.667M914 736L914 737L921 737L914 736M924 736L925 737L924 736z"/>
<path style="fill:#f0f2f7; stroke:none;" d="M922 739L914 737L914 769L922 769C922 760.034 918.931 746.998 929 743L929 736L922 739z"/>
<path style="fill:#cd6f7d; stroke:none;" d="M951 736L952 737L951 736z"/>
<path style="fill:#f0f2f7; stroke:none;" d="M952 736.638C930.69 742.798 940.644 775.799 962 769.197C982.945 762.722 972.998 730.568 952 736.638z"/>
<path style="fill:#cd6f7d; stroke:none;" d="M962 736L963 737L962 736M996.667 736.333L997.333 736.667L996.667 736.333z"/>
<path style="fill:#f0f2f7; stroke:none;" d="M1012 766C1008.36 778.931 996.397 772.007 987 772C990.632 785.943 1011.89 784.585 1017.72 773C1021.17 766.15 1022.66 746.276 1019.67 739.111C1018.12 735.419 1013.67 736.865 1013 740C1009.79 738.166 1006.79 736.339 1003 736.109C974.779 734.397 986.461 783.954 1012 766z"/>
<path style="fill:#cd6f7d; stroke:none;" d="M1006.67 736.333L1007.33 736.667L1006.67 736.333M1013 736L1013 737L1019 737L1013 736M1035 736L1035 737L1041 739L1045 736L1043 738L1035 736z"/>
<path style="fill:#f0f2f7; stroke:none;" d="M1041 739L1034 737L1034 769L1042 769L1042.74 749.015L1049 736L1041 739z"/>
<path style="fill:#cd6f7d; stroke:none;" d="M1070.67 736.333L1071.33 736.667L1070.67 736.333z"/>
<path style="fill:#f0f2f7; stroke:none;" d="M1087 766C1087.8 769.716 1090.64 769 1094 769L1094 737C1090.64 737 1087.8 736.284 1087 740C1083.79 738.166 1080.79 736.339 1077 736.109C1054.28 734.731 1055.41 772.777 1078 769.81C1081.37 769.368 1084.11 767.651 1087 766z"/>
<path style="fill:#cd6f7d; stroke:none;" d="M1080.67 736.333L1081.33 736.667L1080.67 736.333M1088 736L1088 737L1094 737L1088 736M1108 769L1109 769L1109 737L1115 737C1104.14 732.605 1108 762.529 1108 769M1119 736L1120 737L1119 736z"/>
<path style="fill:#f0f2f7; stroke:none;" d="M1117 739L1109 737L1109 769L1117 769C1117 763.412 1113.97 743.867 1123 743.867C1132.03 743.867 1129 763.412 1129 769L1137 769C1137 763.508 1134.16 743.05 1143.99 744.037C1152.77 744.919 1150 763.244 1150 769L1157 769C1157 759.16 1161 739.375 1148 736.394C1142.74 735.188 1138.91 738.423 1134 738.292C1127.48 738.118 1122.82 733.549 1117 739z"/>
<path style="fill:#cd6f7d; stroke:none;" d="M1128.67 736.333L1129.33 736.667L1128.67 736.333M1139 736L1140 737L1139 736M1149 736L1150 737L1149 736M1172 769L1173 769L1173 737L1180 737L1180 769C1182.9 762.09 1182.12 747.494 1180.85 740.059C1180.29 736.773 1176.54 734.728 1173.6 737.029C1171.25 738.876 1172 743.396 1172 746L1172 769M1195 736L1195 737L1201 737L1195 736M1206 736L1207 737L1206 736z"/>
<path style="fill:#f0f2f7; stroke:none;" d="M1203 739L1202 739L1195 737L1195 769L1203 769C1203 762.918 1200.17 747.328 1207.11 744.288C1218.08 739.483 1216 764.04 1216 769L1223 769C1223 761.271 1225 750.234 1221.99 743.015C1218.8 735.367 1209 734.231 1203 739z"/>
<path style="fill:#cd6f7d; stroke:none;" d="M1215 736L1216 737L1215 736M1247.67 736.333L1248.33 736.667L1247.67 736.333z"/>
<path style="fill:#f0f2f7; stroke:none;" d="M1262 765L1263 765C1260.82 779.116 1247.33 772.007 1238 772C1242.43 784.919 1261.16 784.943 1267.99 773.985C1274.03 764.315 1271 747.935 1271 737C1267.64 737 1264.8 736.284 1264 740C1260.79 738.166 1257.79 736.339 1254 736.109C1250.92 735.922 1247.69 736.538 1245 738.089C1235.56 743.534 1234.1 758.305 1242.19 765.61C1247.7 770.589 1257.86 772.261 1262 765z"/>
<path style="fill:#cd6f7d; stroke:none;" d="M1257.67 736.333L1258.33 736.667L1257.67 736.333M1264 736L1264 737L1270 737L1264 736M343 737L344 738L343 737M407 737L408 738L407 737M435 737L436 738L435 737M449 737L450 738L449 737M510 737L511 738L510 737M525 737L526 738L525 737z"/>
<path style="fill:#f0f2f7; stroke:none;" d="M548 737L548 769L556 769L556 737L548 737z"/>
<path style="fill:#cd6f7d; stroke:none;" d="M578 737L579 738L578 737M592 737L593 738L592 737M695 737L696 738L695 737M711 737L712 738L711 737M747 737L747 744L748 744L747 737z"/>
<path style="fill:#f0f2f7; stroke:none;" d="M782 737L782 769L790 769L790 737L782 737z"/>
<path style="fill:#cd6f7d; stroke:none;" d="M813 737L814 738L813 737M827 737L828 738L827 737M922 737L923 738L922 737M948.667 737.333L949.333 737.667L948.667 737.333M964 737L965 738L964 737M994 737L995 738L994 737M1012 737L1011 740L1012 737M1019 737L1020 738L1019 737M1068 737L1069 738L1068 737M1083 737L1084 738L1083 737M1117 737L1118 738L1117 737M1137 737L1138 738L1137 737M1151 737L1152 738L1151 737z"/>
<path style="fill:#f0f2f7; stroke:none;" d="M1173 737L1173 769L1180 769L1180 737L1173 737z"/>
<path style="fill:#cd6f7d; stroke:none;" d="M1202.33 737.667L1202.67 738.333L1202.33 737.667M1204 737L1205 738L1204 737M1217 737L1218 738L1217 737M1245 737L1246 738L1245 737M1263 737L1262 740L1263 737M351 738L352 741L353 741L351 738M392 738L393 739L392 738M408 738L409 739L408 738M508 738L509 739L508 738M527 738L528 739L527 738M576 738L577 739L576 738M595 738L596 739L595 738M665 738L666 739L665 738M812 738L813 739L812 738M828 738L829 739L828 738M921 738L922 739L921 738M947 738L948 739L947 738M966 738L967 739L966 738M1010 738L1011 739L1010 738M1084 738L1085 739L1084 738M1116 738L1117 739L1116 738M1261 738L1262 739L1261 738z"/>
<path style="fill:#132974; stroke:none;" d="M351 739L348 750L356 750L351 739z"/>
<path style="fill:#cd6f7d; stroke:none;" d="M360 739L361 740L360 739M432 739L433 740L432 739M507 739L508 740L507 739M655 739L656 740L655 739M692 739L693 740L692 739M829 739L830 740L829 739M967 739L968 740L967 739M991 739L992 740L991 739M1085 739L1086 740L1085 739M1242 739L1243 740L1242 739M342 740L343 741L342 740M350 740L351 741L350 740M431 740L432 741L431 740M654 740L655 741L654 740M691 740L692 741L691 740M715 740L716 741L715 740M830 740L831 741L830 740M892.333 740.667L892.667 741.333L892.333 740.667M990 740L991 741L990 740M1241 740L1242 741L1241 740M361 741L362 742L361 741M411 741L412 742L411 741M430 741L431 742L430 741M573 741L574 742L573 741M690 741L691 742L690 741M716 741L717 742L716 741M831 741L832 742L831 741M989 741L990 742L989 741M1155 741L1156 742L1155 741M1221 741L1222 742L1221 741M1240 741L1241 742L1240 741M341 742L342 743L341 742M353 742L354 743L353 742M504 742L505 743L504 742M572 742L573 743L572 742M653 742L654 743L653 742M662 742L663 743L662 742M717 742L718 743L717 742M891 742L892 743L891 742M970 742L971 743L970 742M1222.33 742.667L1222.67 743.333L1222.33 742.667M349 743L350 744L349 743M362 743L363 744L362 743M397 743L397 744L401 744L397 743M412.333 743.667L412.667 744.333L412.333 743.667M442 743L442 744L446 744L442 743M488.667 743.333L489.333 743.667L488.667 743.333M503 743L504 744L503 743M516 743L516 744L520 744L516 743M532 743L533 744L532 743M584 743L584 744L589 744L584 743M652 743L653 744L652 743M661 743L662 744L661 743M701 743L701 744L706 744L701 743M731 743L732 744L731 743M817 743L817 744L821 744L817 743M890 743L891 744L890 743M900 743L901 744L900 743M926.667 743.333L927.333 743.667L926.667 743.333z"/>
<path style="fill:#2cb2b2; stroke:none;" d="M928 743L929 744L928 743z"/>
<path style="fill:#cd6f7d; stroke:none;" d="M942 743L943 744L942 743M955 743L955 744L959 744L955 743M971 743L972 744L971 743M1000 743L1000 744L1005 744L1000 743M1047.67 743.333L1048.33 743.667L1047.67 743.333M1062 743L1063 744L1062 743M1075 743L1075 744L1080 744L1075 743M1121 743L1121 744L1125 744L1121 743M1142 743L1142 744L1146 744L1142 743M1156 743L1157 744L1156 743M1207 743L1207 744L1211 744L1207 743M1251 743L1251 744L1256 744L1251 743M395 744L396 745L395 744M402 744L403 745L402 744M428 744L429 745L428 744M439 744L440 745L439 744z"/>
<path style="fill:#132974; stroke:none;" d="M440.044 744.742C429.429 749.049 436.891 765.907 447.895 761.258C458.322 756.852 450.954 740.316 440.044 744.742z"/>
<path style="fill:#cd6f7d; stroke:none;" d="M448 744L449 745L448 744z"/>
<path style="fill:#132974; stroke:none;" d="M514.044 745.028C503.467 750.651 512.465 766.943 522.786 760.821C532.022 755.343 524.099 739.682 514.044 745.028z"/>
<path style="fill:#cd6f7d; stroke:none;" d="M522 744L523 745L522 744M582 744L583 745L582 744z"/>
<path style="fill:#132974; stroke:none;" d="M583.044 744.742C572.976 748.823 579.225 765.442 589.985 761.257C601.179 756.903 593.955 740.32 583.044 744.742z"/>
<path style="fill:#cd6f7d; stroke:none;" d="M688 744L689 745L688 744M699 744L700 745L699 744z"/>
<path style="fill:#132974; stroke:none;" d="M700.019 744.743C689.347 748.938 696.183 765.587 706.956 761.257C717.025 757.211 710.771 740.517 700.019 744.743z"/>
<path style="fill:#cd6f7d; stroke:none;" d="M707 744L708 745L707 744M718 744L719 745L718 744M832 744L833 745L832 744M887.667 744.333L888.333 744.667L887.667 744.333M941 744L942 745L941 744M952 744L953 745L952 744z"/>
<path style="fill:#132974; stroke:none;" d="M953.105 744.742C943.174 748.934 949.179 765.46 959.985 761.257C971.035 756.959 963.861 740.202 953.105 744.742z"/>
<path style="fill:#cd6f7d; stroke:none;" d="M987 744L988 745L987 744M998 744L999 745L998 744z"/>
<path style="fill:#132974; stroke:none;" d="M999.044 744.742C988.464 749.031 995.998 765.862 1006.9 761.258C1017.34 756.844 1009.84 740.365 999.044 744.742M1073.05 745.028C1062.67 750.637 1071.71 766.406 1081.94 760.821C1091.55 755.578 1083.37 739.454 1073.05 745.028z"/>
<path style="fill:#cd6f7d; stroke:none;" d="M1119 744L1120 745L1119 744M1126 744L1127 745L1126 744M1205 744L1206 745L1205 744M1212 744L1213 745L1212 744M1238 744L1239 745L1238 744M1249 744L1250 745L1249 744z"/>
<path style="fill:#132974; stroke:none;" d="M1250.09 744.742C1239.51 749.151 1247.11 765.812 1257.9 761.258C1268.27 756.876 1260.97 740.212 1250.09 744.742z"/>
<path style="fill:#cd6f7d; stroke:none;" d="M1258 744L1259 745L1258 744M340 745L341 746L340 745M354 745L355 746L354 745M363.333 745.667L363.667 746.333L363.333 745.667M394 745L395 746L394 745M403 745L404 746L403 745M502 745L503 746L502 745M512 745L513 746L512 745M533 745L534 746L533 745M570 745L571 746L570 745M592 745L593 746L592 745M687.333 745.667L687.667 746.333L687.333 745.667M697 745L698 746L697 745M823 745L824 746L823 745M923 745L924 746L923 745M962 745L963 746L962 745M972 745L973 746L972 745M1008 745L1009 746L1008 745M1061 745L1062 746L1061 745M1071 745L1072 746L1071 745M1083 745L1084 746L1083 745M1118 745L1119 746L1118 745M1127 745L1128 746L1127 745M1204 745L1205 746L1204 745M1223 745L1223 769L1224 769L1223 745M348.333 746.667L348.667 747.333L348.333 746.667M427 746L428 747L427 746M511 746L512 747L511 746M593 746L594 747L593 746M659 746L660 747L659 746M696 746L697 747L696 746M719 746L720 747L719 746M813.333 746.667L813.667 747.333L813.333 746.667M940.333 746.667L940.667 747.333L940.333 746.667M963 746L964 747L963 746M986.333 746.667L986.667 747.333L986.333 746.667M1043 746L1044 747L1043 746M1070 746L1071 747L1070 746M1084 746L1085 747L1084 746M1138 746L1139 747L1138 746M1148 746L1149 747L1148 746M1157 746L1157 769L1158 769L1157 746M1214 746L1215 747L1214 746M1237.33 746.667L1237.67 747.333L1237.33 746.667M339 747L340 748L339 747M393 747L394 748L393 747M413 747L413 769L414 769L413 747M451 747L452 748L451 747M483 747L483 769L484 769L483 747M501.333 747.667L501.667 748.333L501.333 747.667M510 747L511 748L510 747M525 747L526 748L525 747M534 747L535 748L534 747M594 747L595 748L594 747M824 747L825 748L824 747M898 747L899 748L898 747M922.333 747.667L922.667 748.333L922.333 747.667M949 747L950 748L949 747M964 747L965 748L964 747M973.333 747.667L973.667 748.333L973.333 747.667M1010 747L1011 748L1010 747M1060.33 747.667L1060.67 748.333L1060.33 747.667M1117.33 747.667L1117.67 748.333L1117.33 747.667M1128 747L1129 748L1128 747M1203.33 747.667L1203.67 748.333L1203.33 747.667M1246 747L1247 748L1246 747M1261 747L1262 748L1261 747M355 748L356 749L355 748M364 748L365 749L364 748M435 748L436 749L435 748M569.333 748.667L569.667 749.333L569.333 748.667M578 748L579 749L578 748M686 748L686 751L687 751L686 748M711 748L712 749L711 748M897 748L898 749L897 748M948.333 748.667L948.667 749.333L948.333 748.667M994 748L995 749L994 748M1042 748L1042 768L1043 768L1042 748M1137 748L1137 769L1138 769L1137 748M1245 748L1246 749L1245 748M338 749L339 750L338 749M347 749L348 750L347 749M426 749L426 757L427 757L426 749M452 749L453 750L452 749M509 749L510 750L509 749M526 749L527 750L526 749M595 749L596 750L595 749M660 749L661 750L660 749M720.333 749.667L720.667 750.333L720.333 749.667M812 749L812 769L813 769L812 749M833 749L833 768L834 768L833 749M1011 749L1012 750L1011 749M1149 749L1149 769L1150 769L1149 749M1236 749L1236 756L1237 756L1236 749M1262 749L1263 750L1262 749M577 750L577 756L578 756L577 750M661 750L662 751L661 750M694.333 750.667L694.667 751.333L694.333 750.667M712 750L712 756L713 756L712 750M895 750L896 751L895 750M939 750L939 755L940 755L939 750M965 750L966 751L965 750M985 750L985 755L986 755L985 750M1068 750L1069 751L1068 750M1086 750L1086 756L1087 756L1086 750M1215 750L1215 769L1216 769L1215 750M392 751L392 769L393 769L392 751M434 751L434 755L435 755L434 751M652 751L653 752L652 751M947 751L947 755L948 755L947 751M337 752L338 753L337 752M453.333 752.667L453.667 753.333L453.333 752.667M653 752L654 753L653 752M890.667 752.333L891.333 752.667L890.667 752.333M993.333 752.667L993.667 753.333L993.333 752.667M366 753L367 754L366 753M663 753L664 754L663 753M336 754L337 755L336 754M694.333 754.667L694.667 755.333L694.333 754.667M881 754L881 768L882 768L881 754M367 755L368 756L367 755M655 755L656 756L655 755M686 755L686 758L687 758L686 755M720.333 755.667L720.667 756.333L720.333 755.667M1068.33 755.667L1068.67 756.333L1068.33 755.667M452.333 756.667L452.667 757.333L452.333 756.667M509 756L510 757L509 756M526 756L527 757L526 756M569.333 756.667L569.667 757.333L569.333 756.667M595 756L596 757L595 756M965 756L966 757L965 756M1011 756L1012 757L1011 756M1262 756L1263 757L1262 756M335 757L336 758L335 757M368.333 757.667L368.667 758.333L368.333 757.667M435 757L436 758L435 757M501.333 757.667L501.667 758.333L501.333 757.667M578 757L579 758L578 757M666 757L667 758L666 757M711 757L712 758L711 757M948 757L949 758L948 757M973.333 757.667L973.667 758.333L973.333 757.667M1060.33 757.667L1060.67 758.333L1060.33 757.667M344 758L345 759L344 758M359 758L360 759L359 758M451 758L452 759L451 758M510 758L511 759L510 758M525 758L526 759L525 758M534 758L535 759L534 758M594 758L595 759L594 758M657 758L658 759L657 758M667 758L668 759L667 758M964 758L965 759L964 758M986.333 758.667L986.667 759.333L986.333 758.667M995 758L996 759L995 758M1010 758L1011 759L1010 758M1069 758L1070 759L1069 758M1237.33 758.667L1237.67 759.333L1237.33 758.667M1246 758L1247 759L1246 758M1261 758L1262 759L1261 758M334 759L335 760L334 759M343 759L344 760L343 759M427 759L428 760L427 759M593 759L594 760L593 759M658 759L659 760L658 759M696 759L697 760L696 759M719 759L720 760L719 759M940 759L941 760L940 759M963 759L964 760L963 759M1070 759L1071 760L1070 759M1084 759L1085 760L1084 759M360 760L361 761L360 760M369 760L370 761L369 760M502 760L503 761L502 760M512 760L513 761L512 760M533 760L534 761L533 760M570 760L571 761L570 760M592 760L593 761L592 760M668 760L669 761L668 760M697 760L698 761L697 760M709 760L710 761L709 760M962 760L963 761L962 760M972 760L973 761L972 760M1061 760L1062 761L1061 760M1071 760L1072 761L1071 760M1083 760L1084 761L1083 760M1248 760L1249 761L1248 760M333.333 761.667L333.667 762.333L333.333 761.667M428 761L429 762L428 761M439 761L440 762L439 761M448 761L449 762L448 761M513 761L514 762L513 761M522 761L523 762L522 761M582 761L583 762L582 761M590 761L591 762L590 761M669 761L670 762L669 761M688 761L689 762L688 761M699 761L700 762L699 761M707 761L708 762L707 761M718 761L719 762L718 761M941 761L942 762L941 761M952 761L953 762L952 761M960.667 761.333L961.333 761.667L960.667 761.333M987 761L988 762L987 761M998 761L999 762L998 761M1007 761L1008 762L1007 761M1072.67 761.333L1073.33 761.667L1072.67 761.333M1081 761L1082 762L1081 761M1249 761L1250 762L1249 761M1258 761L1259 762L1258 761M342 762L343 763L342 762M361.333 762.667L361.667 763.333L361.333 762.667M442 762L442 763L446 763L442 762M503 762L504 763L503 762M515 762L515 763L520 763L515 762M532 762L533 763L532 762M584 762L584 763L589 763L584 762M660 762L661 763L660 762M701 762L701 763L706 763L701 762M942 762L943 763L942 762M954 762L954 763L959 763L954 762M971 762L972 763L971 762M1001 762L1001 763L1006 763L1001 762M1062 762L1063 763L1062 762M1075 762L1075 763L1080 763L1075 762M1239 762L1240 763L1239 762M1252 762L1252 763L1257 763L1252 762M504 763L505 764L504 763M572 763L573 764L572 763M717 763L718 764L717 763M970 763L971 764L970 763M332 764L333 765L332 764M341 764L342 765L341 764M430 764L431 765L430 764M671 764L672 765L671 764M690 764L691 765L690 764M716 764L717 765L716 764M1063 764L1064 765L1063 764M362 765L363 766L362 765M431 765L432 766L431 765M662 765L663 766L662 765M672 765L673 766L672 765M691 765L692 766L691 765M968 765L969 766L968 765M990 765L991 766L990 765M1064 765L1065 766L1064 765M1241 765L1242 766L1241 765M1262 765L1263 766L1262 765M331.333 766.667L331.667 767.333L331.333 766.667M340 766L341 767L340 766M432 766L433 767L432 766M452 766L453 769L454 769L454 766L452 766M507 766L508 767L507 766M663 766L664 767L663 766M692 766L693 767L692 766M714 766L715 767L714 766M967 766L968 767L967 766M1011 766L1012 767L1011 766M1019 766L1019 769L1020 769L1019 766M1065 766L1066 767L1065 766M1085 766L1086 767L1085 766M372 767L373 768L372 767M433 767L434 768L433 767M451 767L452 768L451 767M508 767L509 768L508 767M527 767L528 768L527 767M576 767L577 768L576 767M947 767L948 768L947 767M966 767L967 768L966 767M993 767L994 768L993 767M1066 767L1067 768L1066 767M1084 767L1085 768L1084 767M1244 767L1245 768L1244 767M1270.33 767.667L1270.67 768.333L1270.33 767.667M435 768L436 769L435 768M449 768L450 769L449 768M510 768L511 769L510 768M525 768L526 769L525 768M578 768L579 769L578 768M592 768L593 769L592 768M695 768L696 769L695 768M711 768L712 769L711 768z"/>
<path style="fill:#2cb2b2; stroke:none;" d="M833 768L834 769L833 768z"/>
<path style="fill:#cd6f7d; stroke:none;" d="M948.667 768.333L949.333 768.667L948.667 768.333M964 768L965 769L964 768M995 768L996 769L995 768M1008 768L1009 769L1008 768M1011.33 768.667L1011.67 769.333L1011.33 768.667z"/>
<path style="fill:#2cb2b2; stroke:none;" d="M1042 768L1043 769L1042 768z"/>
<path style="fill:#cd6f7d; stroke:none;" d="M1068 768L1069 769L1068 768M1083 768L1084 769L1083 768M1245.67 768.333L1246.33 768.667L1245.67 768.333M1259 768L1260 769L1259 768M1262.33 768.667L1262.67 769.333L1262.33 768.667M437 769L438 770L437 769M447 769L448 770L447 769M512 769L513 770L512 769M523 769L524 770L523 769M580 769L581 770L580 769M590 769L591 770L590 769M698 769L699 770L698 769M708 769L709 770L708 769M951 769L952 770L951 769M961.667 769.333L962.333 769.667L961.667 769.333M997 769L998 770L997 769M1006 769L1007 770L1006 769M1070 769L1071 770L1070 769M1080 769L1081 770L1080 769M1248 769L1249 770L1248 769M1257 769L1258 770L1257 769M1010 770L1011 771L1010 770M1261 770L1262 771L1261 770M986 774L987 774L995 772C991.945 770.24 986.861 769.983 986 774M1018 771L1019 772L1018 771z"/>
<path style="fill:#2cb2b2; stroke:none;" d="M1238 771L1239 772L1238 771z"/>
<path style="fill:#cd6f7d; stroke:none;" d="M1239 771L1239 772L1246 772L1239 771M1269 771L1270 772L1269 771M996 772L997 773L996 772M1008 772L1009 773L1008 772M1237 772L1238 773L1237 772M1247 772L1248 773L1247 772M1259 772L1260 773L1259 772M997 773L998 774L997 773M1007 773L1008 774L1007 773M1017 773L1018 774L1017 773M1248 773L1249 774L1248 773M1258 773L1259 774L1258 773M1268 773L1269 774L1268 773M987 774L988 775L987 774M1000.67 774.333L1001.33 774.667L1000.67 774.333M1003.67 774.333L1004.33 774.667L1003.67 774.333M1238 774L1239 775L1238 774M1251 774L1252 775L1251 774M1254.67 774.333L1255.33 774.667L1254.67 774.333M1267 775L1268 776L1267 775M1015 776L1016 777L1015 776M1266 776L1267 777L1266 776M1014 777L1015 778L1014 777M1265 777L1266 778L1265 777M1013 778L1014 779L1013 778M1264 778L1265 779L1264 778M992 779L993 780L992 779M1011 779L1012 780L1011 779M1243 779L1244 780L1243 779M1262 779L1263 780L1262 779M994 780L995 781L994 780M1245 780L1246 781L1245 780M996 781L997 782L996 781M1007 781L1008 782L1007 781M1247 781L1248 782L1247 781M1258 781L1259 782L1258 781M999 782L999 783L1005 783L999 782M1250 782L1250 783L1256 783L1250 782z"/>
</svg>
